<?xml version="1.0" encoding="UTF-8"?>
<svg id="Layer_2" data-name="Layer 2" xmlns="http://www.w3.org/2000/svg" xmlns:xlink="http://www.w3.org/1999/xlink" viewBox="0 0 116 105">
  <defs>
    <style>
      .cls-1 {
        clip-path: url(#clippath);
      }

      .cls-2 {
        fill: none;
      }

      .cls-3 {
        fill: #ff5757;
      }
    </style>
    <clipPath id="clippath">
      <rect class="cls-2" width="116" height="105"/>
    </clipPath>
  </defs>
  <g id="Layer_1-2" data-name="Layer 1">
    <g class="cls-1">
      <path class="cls-3" d="m85.84,11.11h-24.92V2.81c0-.37-.07-.72-.21-1.06-.14-.34-.34-.64-.6-.9s-.56-.46-.9-.6c-.34-.14-.69-.21-1.06-.21s-.72.07-1.06.21c-.34.14-.64.34-.9.6s-.46.56-.6.9c-.14.34-.21.69-.21,1.06v8.31h-24.92c-.91,0-1.81.09-2.7.27-.89.18-1.76.44-2.59.79-.84.35-1.64.78-2.4,1.28s-1.45,1.08-2.09,1.72-1.22,1.34-1.72,2.1-.93,1.55-1.28,2.39-.61,1.71-.79,2.6-.27,1.79-.27,2.7v49.84c0,.91.09,1.81.27,2.7s.44,1.76.79,2.6c.35.84.78,1.64,1.28,2.39s1.08,1.45,1.72,2.1,1.34,1.21,2.09,1.72,1.55.93,2.4,1.28c.84.35,1.7.61,2.59.79.89.18,1.79.27,2.7.27h15.13l10.26,15.38c.13.19.27.36.44.52.17.15.35.28.55.39.2.1.41.19.64.24.22.05.44.08.67.08s.45-.03.67-.08c.22-.06.43-.14.64-.24.2-.11.39-.24.55-.39.17-.16.32-.33.44-.52l10.26-15.38h15.13c.91,0,1.81-.09,2.7-.27.89-.18,1.76-.44,2.59-.79s1.64-.78,2.4-1.28,1.45-1.08,2.09-1.72,1.22-1.34,1.72-2.1.93-1.55,1.28-2.39c.34-.84.61-1.71.79-2.6s.27-1.79.27-2.7V24.96c0-.91-.09-1.81-.27-2.7s-.44-1.76-.79-2.6c-.35-.84-.78-1.64-1.28-2.39s-1.08-1.45-1.72-2.1-1.34-1.21-2.09-1.72-1.56-.93-2.4-1.28-1.7-.61-2.59-.79c-.89-.18-1.79-.27-2.7-.27Zm8.31,63.69c0,.54-.05,1.08-.16,1.62-.1.53-.26,1.05-.47,1.56-.21.5-.46.98-.77,1.43s-.65.88-1.03,1.26-.81.73-1.26,1.03-.93.56-1.44.77c-.5.21-1.02.36-1.56.47-.53.1-1.07.16-1.62.16h-16.61c-.46,0-.9.11-1.31.33-.41.22-.74.52-1,.9l-8.77,13.16-8.77-13.16c-.26-.39-.59-.68-1-.9s-.84-.33-1.31-.33h-16.61c-.55,0-1.09-.06-1.63-.16-.53-.11-1.05-.27-1.56-.47-.5-.21-.98-.47-1.43-.77s-.88-.65-1.26-1.03-.73-.81-1.03-1.26-.56-.93-.77-1.43c-.21-.51-.36-1.03-.47-1.56-.11-.54-.16-1.08-.16-1.62v-8.31h71.99v8.31Zm0-13.85H22.16V24.96c0-.55.05-1.08.16-1.62.1-.54.26-1.05.47-1.56.21-.51.47-.98.77-1.44s.65-.87,1.03-1.26.81-.73,1.26-1.03c.45-.31.93-.56,1.43-.77.51-.21,1.03-.36,1.56-.47.54-.1,1.08-.16,1.63-.16h55.38c.55,0,1.09.06,1.62.16.54.11,1.06.27,1.56.47.51.21.98.46,1.44.77.45.3.88.65,1.26,1.03s.73.8,1.03,1.26.56.93.77,1.44c.21.51.37,1.02.47,1.56.11.54.16,1.07.16,1.62v35.99Zm-47.07-19.38c0,.36-.03.72-.1,1.08-.07.36-.18.7-.32,1.04-.14.33-.31.66-.51.96s-.43.58-.69.84c-.26.26-.54.48-.84.69s-.63.38-.96.51c-.34.14-.68.24-1.04.32-.36.07-.72.1-1.08.1s-.72-.04-1.08-.1c-.36-.07-.7-.18-1.04-.32-.33-.14-.66-.31-.96-.51s-.58-.43-.84-.69c-.26-.26-.48-.54-.69-.84s-.38-.63-.51-.96c-.14-.34-.24-.68-.32-1.04-.07-.35-.1-.71-.1-1.08s.04-.72.1-1.08c.07-.36.18-.7.32-1.04.14-.33.31-.66.51-.96s.43-.58.69-.84c.26-.26.54-.48.84-.69s.63-.38.96-.51c.34-.14.68-.24,1.04-.32.35-.07.71-.1,1.08-.1s.72.03,1.08.1c.35.07.7.18,1.04.32.33.14.66.31.96.51s.58.43.84.69.48.54.69.84.38.63.51.96c.14.34.24.68.32,1.04.07.35.1.71.1,1.08Zm33.23,0c0,.36-.04.72-.1,1.08-.07.36-.18.7-.32,1.04-.14.33-.31.66-.51.96s-.43.58-.69.84c-.26.26-.54.48-.84.69-.31.2-.63.38-.96.51-.34.14-.68.24-1.04.32-.35.07-.71.1-1.08.1s-.72-.04-1.08-.1c-.35-.07-.7-.18-1.04-.32-.34-.14-.66-.31-.96-.51s-.58-.43-.84-.69c-.26-.26-.49-.54-.69-.84-.2-.3-.38-.63-.52-.96-.14-.34-.24-.68-.31-1.04-.07-.35-.1-.71-.1-1.08s.03-.72.1-1.08c.07-.36.18-.7.31-1.04.14-.33.31-.66.52-.96.2-.3.43-.58.69-.84s.54-.48.84-.69.62-.38.96-.51c.33-.14.68-.24,1.04-.32.36-.07.72-.1,1.08-.1s.72.03,1.08.1c.36.07.7.18,1.04.32.33.14.65.31.96.51.3.2.58.43.84.69.26.26.48.54.69.84s.37.63.51.96c.14.34.24.68.32,1.04.07.35.1.71.1,1.08ZM5.54,30.49v22.16c0,.36-.07.72-.21,1.06s-.34.64-.6.9c-.26.26-.56.46-.9.6-.34.14-.69.21-1.06.21s-.72-.07-1.06-.21c-.34-.14-.64-.34-.9-.6-.26-.26-.46-.56-.6-.9s-.21-.69-.21-1.06v-22.16c0-.36.07-.72.21-1.06s.34-.64.6-.9c.26-.26.56-.46.9-.6.34-.14.69-.21,1.06-.21s.72.07,1.06.21c.34.14.64.34.9.6.26.26.46.56.6.9s.21.69.21,1.06Zm110.76,0v22.16c0,.36-.07.72-.21,1.06s-.34.64-.6.9c-.26.26-.56.46-.9.6s-.69.21-1.06.21-.72-.07-1.06-.21-.64-.34-.9-.6c-.26-.26-.46-.56-.6-.9s-.21-.69-.21-1.06v-22.16c0-.36.07-.72.21-1.06s.34-.64.6-.9c.26-.26.56-.46.9-.6s.69-.21,1.06-.21.72.07,1.06.21.64.34.9.6c.26.26.46.56.6.9s.21.69.21,1.06Z"/>
    </g>
  </g>
</svg>